<?xml version="1.0" encoding="UTF-8" standalone="no"?>
<!-- Created with Inkscape (http://www.inkscape.org/) -->

<svg
   width="40.37347mm"
   height="37.545216mm"
   viewBox="0 0 40.37347 37.545216"
   version="1.1"
   id="svg1"
   xmlns="http://www.w3.org/2000/svg"
   xmlns:svg="http://www.w3.org/2000/svg">
  <defs
     id="defs1" />
  <g
     id="layer1"
     transform="translate(-369.48414,-49.74167)">
    <path
       style="fill:none;fill-opacity:1;stroke:none;stroke-width:1;stroke-linecap:round;stroke-linejoin:round;stroke-dasharray:none;stroke-opacity:1"
       d="m 391.20828,71.12238 7.81098,13.529027 -1.48999,2.635472"
       id="path198-0-2" />
    <path
       style="fill:none;fill-opacity:1;stroke:none;stroke-width:1;stroke-linecap:round;stroke-linejoin:round;stroke-dasharray:none;stroke-opacity:1"
       d="m 380.36992,84.67876 7.81099,-13.529023 3.02738,-0.02736"
       id="path198-5-3" />
    <path
       style="fill:#e1642e;fill-opacity:1;stroke:none;stroke-width:1;stroke-linecap:round;stroke-linejoin:round;stroke-dasharray:none;stroke-opacity:1"
       d="m 393.23913,84.695321 -3.49377,-6.051387"
       id="path196-2-5-99" />
    <path
       style="fill:none;fill-opacity:1;stroke:none;stroke-width:1;stroke-linecap:round;stroke-linejoin:round;stroke-dasharray:none;stroke-opacity:1"
       d="m 393.23913,84.695321 -12.86921,-0.01656"
       id="path197-9-9-8-7" />
    <path
       style="fill:#e1642e;fill-opacity:1;stroke:none;stroke-width:1;stroke-linecap:round;stroke-linejoin:round;stroke-dasharray:none;stroke-opacity:1"
       d="m 384.75934,82.259163 h 6.98753"
       id="path196-2-5-4-0" />
    <path
       style="fill:none;fill-opacity:1;stroke:none;stroke-width:1;stroke-linecap:round;stroke-linejoin:round;stroke-dasharray:none;stroke-opacity:1"
       d="M 384.75934,82.259163 391.20828,71.12238"
       id="path197-9-9-8-1-39" />
    <path
       style="fill:#e1642e;fill-opacity:1;stroke:none;stroke-width:1;stroke-linecap:round;stroke-linejoin:round;stroke-dasharray:none;stroke-opacity:1"
       d="m 391.109,76.13353 -3.49377,6.051378"
       id="path196-2-5-4-5-8" />
    <path
       style="fill:none;fill-opacity:1;stroke:none;stroke-width:1;stroke-linecap:round;stroke-linejoin:round;stroke-dasharray:none;stroke-opacity:1"
       d="m 391.109,76.13353 6.42027,11.153339"
       id="path197-9-9-8-1-9-6" />
    <path
       style="fill:none;fill-opacity:1;stroke:none;stroke-width:1;stroke-linecap:round;stroke-linejoin:round;stroke-dasharray:none;stroke-opacity:1"
       d="M 397.52927,87.286869 H 381.9073 l -1.53738,-2.608109"
       id="path198-57" />
    <path
       style="fill:none;fill-opacity:1;stroke:none;stroke-width:1;stroke-linecap:round;stroke-linejoin:round;stroke-dasharray:none;stroke-opacity:1"
       d="m 409.85763,71.095019 -7.81099,13.52902 -3.02737,0.02738"
       id="path198-0-8-6" />
    <path
       style="fill:none;fill-opacity:1;stroke:none;stroke-width:1;stroke-linecap:round;stroke-linejoin:round;stroke-dasharray:none;stroke-opacity:1"
       d="m 392.69828,68.486914 15.62197,6e-6 1.5374,2.608103"
       id="path198-5-9-2" />
    <path
       style="fill:#e1642e;fill-opacity:1;stroke:none;stroke-width:1;stroke-linecap:round;stroke-linejoin:round;stroke-dasharray:none;stroke-opacity:1"
       d="m 399.11854,79.640259 3.49377,-6.051387"
       id="path196-2-5-9-7" />
    <path
       style="fill:none;fill-opacity:1;stroke:none;stroke-width:1;stroke-linecap:round;stroke-linejoin:round;stroke-dasharray:none;stroke-opacity:1"
       d="M 399.11854,79.640259 392.69828,68.486916"
       id="path197-9-9-8-9-0" />
    <path
       style="fill:#e1642e;fill-opacity:1;stroke:none;stroke-width:1;stroke-linecap:round;stroke-linejoin:round;stroke-dasharray:none;stroke-opacity:1"
       d="m 396.98842,71.078466 3.49377,6.051375"
       id="path196-2-5-4-3-39" />
    <path
       style="fill:none;fill-opacity:1;stroke:none;stroke-width:1;stroke-linecap:round;stroke-linejoin:round;stroke-dasharray:none;stroke-opacity:1"
       d="m 396.98842,71.078466 12.86921,0.01655"
       id="path197-9-9-8-1-3-9" />
    <path
       style="fill:#e1642e;fill-opacity:1;stroke:none;stroke-width:1;stroke-linecap:round;stroke-linejoin:round;stroke-dasharray:none;stroke-opacity:1"
       d="m 405.46821,73.514613 -6.98754,10e-7"
       id="path196-2-5-4-5-7-9" />
    <path
       style="fill:none;fill-opacity:1;stroke:none;stroke-width:1;stroke-linecap:round;stroke-linejoin:round;stroke-dasharray:none;stroke-opacity:1"
       d="M 405.46821,73.514613 399.01927,84.6514"
       id="path197-9-9-8-1-9-7-1" />
    <path
       style="fill:none;fill-opacity:1;stroke:none;stroke-width:1;stroke-linecap:round;stroke-linejoin:round;stroke-dasharray:none;stroke-opacity:1"
       d="m 399.01927,84.651399 -7.81099,-13.529019 1.49,-2.635466"
       id="path198-3-72" />
    <path
       style="fill:none;fill-opacity:1;stroke:none;stroke-width:1;stroke-linecap:round;stroke-linejoin:round;stroke-dasharray:none;stroke-opacity:1"
       d="m 386.64353,68.54163 -15.62197,-6e-6 -1.53739,-2.608103"
       id="path198-0-86-3" />
    <path
       style="fill:none;fill-opacity:1;stroke:none;stroke-width:1;stroke-linecap:round;stroke-linejoin:round;stroke-dasharray:none;stroke-opacity:1"
       d="m 380.32254,52.377145 7.81098,13.529027 -1.48999,2.635468"
       id="path198-5-7-6" />
    <path
       style="fill:#e1642e;fill-opacity:1;stroke:none;stroke-width:1;stroke-linecap:round;stroke-linejoin:round;stroke-dasharray:none;stroke-opacity:1"
       d="m 373.87359,63.513927 h 6.98754"
       id="path196-2-5-1-5" />
    <path
       style="fill:none;fill-opacity:1;stroke:none;stroke-width:1;stroke-linecap:round;stroke-linejoin:round;stroke-dasharray:none;stroke-opacity:1"
       d="m 373.87359,63.513927 6.44895,-11.136782"
       id="path197-9-9-8-8-5" />
    <path
       style="fill:#e1642e;fill-opacity:1;stroke:none;stroke-width:1;stroke-linecap:round;stroke-linejoin:round;stroke-dasharray:none;stroke-opacity:1"
       d="m 380.22326,57.388293 -3.49376,6.051378"
       id="path196-2-5-4-4-8" />
    <path
       style="fill:none;fill-opacity:1;stroke:none;stroke-width:1;stroke-linecap:round;stroke-linejoin:round;stroke-dasharray:none;stroke-opacity:1"
       d="m 380.22326,57.388293 6.42027,11.153337"
       id="path197-9-9-8-1-97-1" />
    <path
       style="fill:#e1642e;fill-opacity:1;stroke:none;stroke-width:1;stroke-linecap:round;stroke-linejoin:round;stroke-dasharray:none;stroke-opacity:1"
       d="m 382.35339,65.950076 -3.49377,-6.051382"
       id="path196-2-5-4-5-3-4" />
    <path
       style="fill:none;fill-opacity:1;stroke:none;stroke-width:1;stroke-linecap:round;stroke-linejoin:round;stroke-dasharray:none;stroke-opacity:1"
       d="m 382.35339,65.950076 -12.86921,-0.01655"
       id="path197-9-9-8-1-9-1-7" />
    <path
       style="fill:none;fill-opacity:1;stroke:none;stroke-width:1;stroke-linecap:round;stroke-linejoin:round;stroke-dasharray:none;stroke-opacity:1"
       d="m 369.48418,65.933525 7.81098,-13.529023 3.02738,-0.02736"
       id="path198-02-1" />
    <path
       style="fill:none;fill-opacity:1;stroke:none;stroke-width:1;stroke-linecap:round;stroke-linejoin:round;stroke-dasharray:none;stroke-opacity:1"
       d="m 377.34255,84.706122 -7.81098,-13.529026 1.48997,-2.63547"
       id="path198-0-8-3-3" />
    <path
       style="fill:none;fill-opacity:1;stroke:none;stroke-width:1;stroke-linecap:round;stroke-linejoin:round;stroke-dasharray:none;stroke-opacity:1"
       d="m 388.18091,71.149741 -7.81099,13.52902 -3.02738,0.02738"
       id="path198-5-9-7-8" />
    <path
       style="fill:#e1642e;fill-opacity:1;stroke:none;stroke-width:1;stroke-linecap:round;stroke-linejoin:round;stroke-dasharray:none;stroke-opacity:1"
       d="m 375.3117,71.133177 3.49377,6.051387"
       id="path196-2-5-9-1-4" />
    <path
       style="fill:none;fill-opacity:1;stroke:none;stroke-width:1;stroke-linecap:round;stroke-linejoin:round;stroke-dasharray:none;stroke-opacity:1"
       d="m 375.3117,71.133177 12.86921,0.01656"
       id="path197-9-9-8-9-8-8" />
    <path
       style="fill:#e1642e;fill-opacity:1;stroke:none;stroke-width:1;stroke-linecap:round;stroke-linejoin:round;stroke-dasharray:none;stroke-opacity:1"
       d="m 383.79149,73.569335 -6.98753,6e-6"
       id="path196-2-5-4-3-9-0" />
    <path
       style="fill:none;fill-opacity:1;stroke:none;stroke-width:1;stroke-linecap:round;stroke-linejoin:round;stroke-dasharray:none;stroke-opacity:1"
       d="m 383.79149,73.569335 -6.44894,11.136788"
       id="path197-9-9-8-1-3-3-4" />
    <path
       style="fill:#e1642e;fill-opacity:1;stroke:none;stroke-width:1;stroke-linecap:round;stroke-linejoin:round;stroke-dasharray:none;stroke-opacity:1"
       d="m 377.44183,79.694975 3.49377,-6.051387"
       id="path196-2-5-4-5-7-7-6" />
    <path
       style="fill:none;fill-opacity:1;stroke:none;stroke-width:1;stroke-linecap:round;stroke-linejoin:round;stroke-dasharray:none;stroke-opacity:1"
       d="M 377.44183,79.694975 371.02156,68.541636"
       id="path197-9-9-8-1-9-7-4-0" />
    <path
       style="fill:none;fill-opacity:1;stroke:none;stroke-width:1;stroke-linecap:round;stroke-linejoin:round;stroke-dasharray:none;stroke-opacity:1"
       d="m 371.02156,68.541636 15.62197,-6e-6 1.53738,2.608111"
       id="path198-3-8-3" />
    <path
       style="fill:none;fill-opacity:1;stroke:none;stroke-width:1;stroke-linecap:round;stroke-linejoin:round;stroke-dasharray:none;stroke-opacity:1"
       d="m 391.1609,65.878816 7.81099,-13.52902 3.02737,-0.02737"
       id="path198-0-6-2" />
    <path
       style="fill:none;fill-opacity:1;stroke:none;stroke-width:1;stroke-linecap:round;stroke-linejoin:round;stroke-dasharray:none;stroke-opacity:1"
       d="m 408.32025,68.486921 -15.62198,-7e-6 -1.53738,-2.608103"
       id="path198-5-78-6" />
    <path
       style="fill:#e1642e;fill-opacity:1;stroke:none;stroke-width:1;stroke-linecap:round;stroke-linejoin:round;stroke-dasharray:none;stroke-opacity:1"
       d="m 401.89998,57.333575 -3.49377,6.051387"
       id="path196-2-5-0-9" />
    <path
       style="fill:none;fill-opacity:1;stroke:none;stroke-width:1;stroke-linecap:round;stroke-linejoin:round;stroke-dasharray:none;stroke-opacity:1"
       d="m 401.89998,57.333575 6.42027,11.153346"
       id="path197-9-9-8-6-4" />
    <path
       style="fill:#e1642e;fill-opacity:1;stroke:none;stroke-width:1;stroke-linecap:round;stroke-linejoin:round;stroke-dasharray:none;stroke-opacity:1"
       d="m 404.0301,65.895368 -3.49376,-6.051374"
       id="path196-2-5-4-57-1" />
    <path
       style="fill:none;fill-opacity:1;stroke:none;stroke-width:1;stroke-linecap:round;stroke-linejoin:round;stroke-dasharray:none;stroke-opacity:1"
       d="m 404.0301,65.895368 -12.8692,-0.01655"
       id="path197-9-9-8-1-34-3" />
    <path
       style="fill:#e1642e;fill-opacity:1;stroke:none;stroke-width:1;stroke-linecap:round;stroke-linejoin:round;stroke-dasharray:none;stroke-opacity:1"
       d="m 395.55032,63.459223 6.98753,-3e-6"
       id="path196-2-5-4-5-30-7" />
    <path
       style="fill:none;fill-opacity:1;stroke:none;stroke-width:1.6;stroke-linecap:round;stroke-linejoin:round;stroke-dasharray:none;stroke-opacity:1"
       d="m 400.41996,62.308292 -1e-5,12.411959"
       id="path202-5-6-8" />
    <path
       style="fill:none;fill-opacity:1;stroke:none;stroke-width:1;stroke-linecap:round;stroke-linejoin:round;stroke-dasharray:none;stroke-opacity:1"
       d="m 395.55032,63.459223 6.44894,-11.136788"
       id="path197-9-9-8-1-9-4-8" />
    <path
       style="fill:none;fill-opacity:1;stroke:none;stroke-width:1;stroke-linecap:round;stroke-linejoin:round;stroke-dasharray:none;stroke-opacity:1"
       d="m 401.99926,52.322435 7.81098,13.529019 -1.48999,2.635466"
       id="path198-8-3" />
    <path
       style="fill:none;fill-opacity:1;stroke:none;stroke-width:1;stroke-linecap:round;stroke-linejoin:round;stroke-dasharray:none;stroke-opacity:1"
       d="m 381.81253,49.741685 15.62197,6e-6 1.53739,2.608087"
       id="path198-0-8-7-8" />
    <path
       style="fill:none;fill-opacity:1;stroke:none;stroke-width:1;stroke-linecap:round;stroke-linejoin:round;stroke-dasharray:none;stroke-opacity:1"
       d="m 388.13352,65.906171 -7.81098,-13.529026 1.48997,-2.635478"
       id="path198-5-9-5-1" />
    <path
       style="fill:none;fill-opacity:1;stroke:none;stroke-width:1;stroke-linecap:round;stroke-linejoin:round;stroke-dasharray:none;stroke-opacity:1"
       d="M 388.2328,60.895024 381.81252,49.741685"
       id="path197-9-9-8-1-3-2-5" />
    <path
       style="fill:#e1642e;fill-opacity:1;stroke:none;stroke-width:1;stroke-linecap:round;stroke-linejoin:round;stroke-dasharray:none;stroke-opacity:1"
       d="m 394.58247,54.76939 h -6.98754"
       id="path196-2-5-9-9-3" />
    <path
       style="fill:#e1642e;fill-opacity:1;stroke:none;stroke-width:1;stroke-linecap:round;stroke-linejoin:round;stroke-dasharray:none;stroke-opacity:1"
       d="m 386.10267,52.333238 3.49377,6.051387"
       id="path196-2-5-4-5-7-73-5" />
    <path
       style="fill:none;fill-opacity:1;stroke:none;stroke-width:1;stroke-linecap:round;stroke-linejoin:round;stroke-dasharray:none;stroke-opacity:1"
       d="m 394.58247,54.76939 -6.44895,11.136783"
       id="path197-9-9-8-9-5-4" />
    <path
       style="fill:#e1642e;fill-opacity:1;stroke:none;stroke-width:1;stroke-linecap:round;stroke-linejoin:round;stroke-dasharray:none;stroke-opacity:1"
       d="m 388.2328,60.895024 3.49376,-6.051381"
       id="path196-2-5-4-3-3-3" />
    <path
       style="fill:none;fill-opacity:1;stroke:none;stroke-width:1.6;stroke-linecap:round;stroke-linejoin:round;stroke-dasharray:none;stroke-opacity:1"
       d="m 378.92182,62.308296 10.74907,-6.205967"
       id="path202-5-6-5-6" />
    <path
       style="fill:none;fill-opacity:1;stroke:none;stroke-width:1;stroke-linecap:round;stroke-linejoin:round;stroke-dasharray:none;stroke-opacity:1"
       d="m 378.92181,63.483753 1e-5,-1.175457"
       id="path202-0-5" />
    <path
       style="fill:none;fill-opacity:1;stroke:none;stroke-width:1;stroke-linecap:round;stroke-linejoin:round;stroke-dasharray:none;stroke-opacity:1"
       d="m 378.92181,62.308291 10.74908,-6.205973"
       id="path202-5-65-9" />
    <path
       style="fill:none;fill-opacity:1;stroke:none;stroke-width:1;stroke-linecap:round;stroke-linejoin:round;stroke-dasharray:none;stroke-opacity:1"
       d="m 389.67089,56.102307 0.92123,0.531872"
       id="path202-4-3-5" />
    <path
       style="fill:none;fill-opacity:1;stroke:none;stroke-width:1;stroke-linecap:round;stroke-linejoin:round;stroke-dasharray:none;stroke-opacity:1"
       d="m 386.10267,52.333238 12.86921,0.01655"
       id="path197-9-9-8-1-9-7-9-4" />
    <path
       style="fill:none;fill-opacity:1;stroke:none;stroke-width:1;stroke-linecap:round;stroke-linejoin:round;stroke-dasharray:none;stroke-opacity:1"
       d="m 398.97188,52.34979 -7.81098,13.529026 -3.02738,0.02736"
       id="path198-3-7-9" />
    <path
       style="fill:none;fill-opacity:1;stroke:none;stroke-width:1;stroke-linecap:round;stroke-linejoin:round;stroke-dasharray:none;stroke-opacity:1"
       d="m 399.40199,61.720565 1.01797,0.587727"
       id="path202-1" />
    <path
       style="fill:none;fill-opacity:1;stroke:none;stroke-width:1;stroke-linecap:round;stroke-linejoin:round;stroke-dasharray:none;stroke-opacity:1"
       d="m 400.41997,62.308292 -10e-6,12.411959"
       id="path202-5-75" />
    <path
       style="fill:none;fill-opacity:1;stroke:none;stroke-width:1;stroke-linecap:round;stroke-linejoin:round;stroke-dasharray:none;stroke-opacity:1"
       d="m 400.41997,74.72026 -0.92123,0.531869"
       id="path202-4-54" />
    <path
       style="fill:none;fill-opacity:1;stroke:none;stroke-width:1.6;stroke-linecap:round;stroke-linejoin:round;stroke-dasharray:none;stroke-opacity:1"
       d="M 389.67089,80.926231 378.92183,74.720248"
       id="path202-5-6-3-1" />
    <path
       style="fill:none;fill-opacity:1;stroke:none;stroke-width:1;stroke-linecap:round;stroke-linejoin:round;stroke-dasharray:none;stroke-opacity:1"
       d="m 390.68887,80.338514 -1.01798,0.587717"
       id="path202-7-8" />
    <path
       style="fill:none;fill-opacity:1;stroke:none;stroke-width:1;stroke-linecap:round;stroke-linejoin:round;stroke-dasharray:none;stroke-opacity:1"
       d="M 389.67089,80.926244 378.92182,74.720253"
       id="path202-5-7-8" />
    <path
       style="fill:none;fill-opacity:1;stroke:none;stroke-width:1;stroke-linecap:round;stroke-linejoin:round;stroke-dasharray:none;stroke-opacity:1"
       d="M 378.92181,74.720259 V 73.656514"
       id="path202-4-5-3" />
    <path
       style="fill:#dc1f1f;fill-opacity:1;stroke:none;stroke-width:0;stroke-linecap:round;stroke-linejoin:round;stroke-dasharray:none;stroke-opacity:1"
       d="m 394.5279,80.987465 c -1.62295,-2.826155 -3.0086,-5.19094 -3.07924,-5.255072 -0.15362,-0.139464 -0.51242,-0.152747 -0.66673,-0.02469 -0.12012,0.09969 -2.15619,3.590489 -2.15479,3.694303 0,0.03475 0.20193,0.173639 0.44765,0.308637 0.39402,0.216469 0.45455,0.231524 0.51276,0.127503 0.0942,-0.168244 0.16804,-0.146582 0.27104,0.07945 0.0768,0.168637 0.0718,0.210651 -0.0344,0.288316 -0.15449,0.112962 0.47184,0.453771 -5.42377,-2.951353 -3.77645,-2.181172 -4.92342,-2.875788 -4.94129,-2.992524 -0.0204,-0.133218 0.0137,-0.152025 0.27579,-0.152025 0.27284,0 0.29247,0.01233 0.22384,0.140563 -0.0658,0.123002 -0.0206,0.173662 0.36094,0.405519 0.2399,0.145724 0.46781,0.245396 0.50649,0.22149 0.0387,-0.02392 0.15902,-0.20639 0.26739,-0.405518 l 0.19703,-0.362054 h 0.75346 c 0.41439,0 0.75345,0.01812 0.75345,0.04029 0,0.02217 -0.18177,0.355137 -0.40396,0.739947 -0.22217,0.384807 -0.37791,0.723723 -0.34608,0.753144 0.0318,0.02942 0.24276,0.156531 0.46871,0.282464 l 0.41082,0.228976 0.70027,-1.209799 c 0.38516,-0.66539 0.7003,-1.285777 0.7003,-1.378638 0,-0.09286 -0.0627,-0.24624 -0.13925,-0.340844 l -0.13925,-0.172006 -3.51668,-0.03643 -3.51668,-0.03643 -0.38368,-0.653767 c -0.21102,-0.359572 -0.37733,-0.654651 -0.36956,-0.655736 0.008,-0.0011 2.47768,0.0076 5.48869,0.01926 l 5.4746,0.02125 -1.46007,2.527959 c -0.80307,1.390377 -1.46336,2.569721 -1.46733,2.620759 -0.004,0.05104 0.19111,0.205364 0.43352,0.342945 l 0.44074,0.250142 1.65508,-2.864805 1.65505,-2.864805 0.855,-0.03498 c 0.47024,-0.01924 0.86656,-0.02545 0.88066,-0.01381 0.014,0.01164 -0.80555,1.455672 -1.82147,3.208952 -1.01594,1.75328 -1.85629,3.22318 -1.86745,3.266445 -0.0111,0.04326 0.18454,0.196741 0.43489,0.341061 l 0.45522,0.262395 0.82793,-1.429443 c 0.45538,-0.786193 1.30715,-2.255261 1.89288,-3.264596 l 1.06493,-1.835152 0.11845,0.195812 c 0.0651,0.107699 1.68153,2.904009 3.59193,6.214026 l 3.47348,6.018209 -0.41566,0.739514 c -0.22863,0.40673 -0.4335,0.73818 -0.45525,0.73655 -0.0217,-0.002 -1.36744,-2.315264 -2.9904,-5.141421 z"
       id="path203-5" />
    <path
       style="fill:#dc1f1f;fill-opacity:1;stroke:none;stroke-width:0;stroke-linecap:round;stroke-linejoin:round;stroke-dasharray:none;stroke-opacity:1"
       d="m 378.34714,84.023855 c 0.31881,-0.52614 3.77085,-6.514272 3.77048,-6.540539 0,-0.03288 -0.87889,-0.547818 -0.8968,-0.525706 -0.005,0.0065 -0.86971,1.497967 -1.92097,3.314393 -1.05126,1.816423 -1.92494,3.315509 -1.94151,3.331308 -0.0166,0.0158 -1.64748,-2.774323 -3.62427,-6.200259 l -3.59416,-6.22898 0.44335,-0.783878 0.44335,-0.783879 0.31823,0.553935 c 4.23344,7.369098 5.69327,9.87422 5.80069,9.954193 0.19297,0.143664 0.47554,0.126249 0.63743,-0.03928 0.19561,-0.200014 2.25041,-3.786312 2.19889,-3.837816 -0.0235,-0.02352 -0.22669,-0.147584 -0.45147,-0.275669 l -0.40869,-0.232878 -0.13581,0.239519 -0.13581,0.239517 -0.58595,-1.015114 c -0.32227,-0.558313 -0.59251,-1.031618 -0.60053,-1.05179 -0.008,-0.02016 0.15438,-0.03667 0.36088,-0.03667 h 0.37546 l 2.3e-4,0.382749 c 1.7e-4,0.287345 0.0193,0.413588 0.0765,0.506465 0.10516,0.170458 10.99077,6.45959 11.18066,6.45959 0.0708,0 0.29457,-0.09041 0.49726,-0.200898 0.2027,-0.110492 0.3732,-0.194151 0.37886,-0.185907 0.0597,0.08673 0.3769,0.648817 0.3769,0.667846 0,0.01384 -0.54131,0.02516 -1.20293,0.02516 -0.66162,0 -1.20293,-0.01304 -1.20293,-0.02896 0,-0.01593 0.0512,-0.116311 0.11375,-0.223068 0.0761,-0.129857 0.0992,-0.208634 0.0699,-0.238 -0.0241,-0.02416 -0.22709,-0.149371 -0.45095,-0.278287 l -0.40706,-0.234386 -0.1574,0.271701 c -0.0866,0.149436 -0.21532,0.375025 -0.28615,0.501308 l -0.12872,0.229606 -0.80187,4.5e-5 -0.80188,4.5e-5 0.0858,-0.142164 c 0.42193,-0.698875 0.8849,-1.533379 0.86289,-1.55539 -0.0337,-0.03365 -0.8741,-0.528457 -0.88088,-0.518604 -0.003,0.0039 -0.33512,0.57759 -0.73866,1.274807 -0.77653,1.341557 -0.81767,1.446035 -0.67466,1.713249 0.12919,0.241408 0.0135,0.234188 3.75264,0.234188 h 3.45421 l 0.39764,0.688951 0.39765,0.688951 -2.75612,0.01127 c -1.51585,0.0062 -3.99558,0.0062 -5.5105,0 l -2.75439,-0.01127 1.55083,-2.687193 c 0.85293,-1.477954 1.54617,-2.690738 1.54051,-2.695072 -0.006,-0.0043 -0.20527,-0.11974 -0.44358,-0.256453 -0.28098,-0.161181 -0.44828,-0.2336 -0.4759,-0.205991 -0.0236,0.02341 -0.79616,1.348057 -1.71723,2.943643 l -1.67465,2.901066 -0.90465,0.01183 -0.90465,0.01183 z"
       id="path204-2" />
    <path
       style="fill:#dc1f1f;fill-opacity:1;stroke:none;stroke-width:0;stroke-linecap:round;stroke-linejoin:round;stroke-dasharray:none;stroke-opacity:1"
       d="m 382.17371,86.691269 c -0.0666,-0.0856 -0.84301,-1.421401 -0.84301,-1.450412 0,-0.01426 2.70756,-0.0259 6.01681,-0.0259 6.60958,0 6.19604,0.01701 6.33981,-0.261028 0.1479,-0.28598 0.16227,-0.256331 -1.62412,-3.35049 -0.92977,-1.610423 -1.6992,-2.96037 -1.70984,-2.999877 -0.0236,-0.08689 0.7321,-1.412417 0.77676,-1.362832 0.0286,0.03178 5.2963,9.178079 5.41769,9.406809 l 0.0522,0.0984 h -7.19188 c -5.70166,0 -7.20071,-0.0113 -7.23445,-0.0547 z"
       id="path205-2" />
    <path
       style="fill:#dc1f1f;fill-opacity:1;stroke:none;stroke-width:0;stroke-linecap:round;stroke-linejoin:round;stroke-dasharray:none;stroke-opacity:1"
       d="m 374.70918,73.861979 c -1.49621,-2.598748 -2.72038,-4.744402 -2.72038,-4.768117 0,-0.02371 3.22628,-0.04289 7.1695,-0.04261 l 7.16948,5.29e-4 0.41889,0.720934 c 0.2304,0.396513 0.42857,0.744287 0.4404,0.77283 0.0119,0.02854 -2.67661,0.0519 -5.97424,0.0519 -4.31886,0 -6.04041,0.02037 -6.15551,0.07281 -0.19489,0.0888 -0.3258,0.379947 -0.26214,0.583004 0.0258,0.08236 0.80146,1.454761 1.72365,3.049772 0.92218,1.595009 1.6761,2.92902 1.67537,2.964463 -0.001,0.05965 -0.62963,1.165067 -0.72309,1.271985 -0.0229,0.02614 -1.26572,-2.078718 -2.76193,-4.677468 z"
       id="path206-6" />
    <path
       style="fill:#e1642e;fill-opacity:1;stroke:none;stroke-width:0;stroke-linecap:round;stroke-linejoin:round;stroke-dasharray:none;stroke-opacity:1"
       d="m 370.89713,67.262395 -0.45413,-0.757226 6.09531,-0.03222 6.0953,-0.03222 0.12319,-0.152141 c 0.0678,-0.08368 0.12319,-0.231203 0.12319,-0.327837 0,-0.105635 -0.27246,-0.64888 -0.68326,-1.362313 -0.37576,-0.65264 -0.84595,-1.469372 -1.04484,-1.814957 -0.19888,-0.345585 -0.38139,-0.628337 -0.40555,-0.628337 -0.11303,0 -0.89199,0.490957 -0.8691,0.547781 0.12152,0.30207 0.12768,0.290003 -0.14817,0.290003 -0.24882,0 -0.26466,-0.01114 -0.26466,-0.186099 0,-0.178792 0.19987,-0.301497 5.0913,-3.125577 2.80019,-1.616713 5.11667,-2.939478 5.14768,-2.939478 0.031,0 0.0909,0.04156 0.13305,0.09235 0.0705,0.08498 0.0236,0.217572 -0.17089,0.482945 -0.0111,0.01513 -0.0593,-0.02592 -0.10702,-0.09123 -0.0826,-0.113018 -0.10827,-0.106892 -0.531,0.126955 -0.24429,0.135137 -0.45534,0.255037 -0.46902,0.266444 -0.0138,0.01141 0.0806,0.197724 0.20944,0.414038 0.12888,0.216315 0.23429,0.407671 0.23429,0.425237 0,0.05694 -0.74007,1.310556 -0.77332,1.309944 -0.0177,-3.17e-4 -0.18251,-0.26821 -0.36621,-0.5953 -0.52462,-0.934171 -0.444,-0.882827 -0.94576,-0.602228 -0.23542,0.131662 -0.42804,0.271172 -0.42804,0.310021 0,0.03885 0.30551,0.599842 0.67895,1.246651 0.72125,1.249256 0.84193,1.376097 1.21922,1.281406 0.21884,-0.05493 0.14362,0.06463 2.09741,-3.334418 l 1.5789,-2.746875 0.79092,-0.0019 0.79094,-0.0019 -0.091,0.145001 c -0.05,0.07975 -1.27236,2.189515 -2.71627,4.688365 -1.44388,2.498851 -2.64573,4.566043 -2.67076,4.593761 -0.0251,0.02772 -0.69281,-1.074288 -1.48394,-2.448905 -0.7911,-1.374616 -1.47529,-2.539577 -1.5204,-2.5888 -0.0692,-0.07549 -0.14832,-0.05071 -0.50578,0.158391 -0.23307,0.136339 -0.42375,0.27271 -0.42375,0.303048 0,0.03034 0.72982,1.320202 1.62184,2.866367 0.89204,1.546164 1.62068,2.842077 1.6192,2.879804 -0.003,0.05194 -0.74576,1.409978 -0.82378,1.504204 -0.008,0.0098 -0.83521,-1.411206 -1.83798,-3.157799 -1.00278,-1.746591 -1.85727,-3.213023 -1.89892,-3.258738 -0.0609,-0.06691 -0.15944,-0.03549 -0.50519,0.161112 -0.23625,0.134327 -0.42982,0.267577 -0.43016,0.296113 0,0.04245 3.18767,5.628416 3.62095,6.344273 l 0.12676,0.209444 h -7.18739 -7.1874 z"
       id="path207-6" />
    <path
       style="fill:#e1642e;fill-opacity:1;stroke:none;stroke-width:0;stroke-linecap:round;stroke-linejoin:round;stroke-dasharray:none;stroke-opacity:1"
       d="m 374.84085,62.946613 c 0.0146,-0.0277 1.25485,-2.175786 2.75606,-4.773532 2.22672,-3.853202 2.74115,-4.701926 2.7929,-4.60781 0.28491,0.518356 2.96911,5.154976 3.01025,5.199811 0.0302,0.03296 0.24984,-0.05921 0.51154,-0.214687 0.43802,-0.260213 0.45453,-0.278699 0.36833,-0.412191 -0.0496,-0.07687 -0.81994,-1.405576 -1.71183,-2.952685 l -1.6216,-2.812925 0.43508,-0.770985 0.43508,-0.770984 1.92326,3.342241 c 1.05777,1.838233 1.93249,3.342241 1.94378,3.342241 0.0114,0 0.22731,-0.119216 0.48004,-0.264924 0.43717,-0.252038 0.45519,-0.27163 0.37036,-0.402781 -0.049,-0.07582 -0.66373,-1.138363 -1.36604,-2.361204 -0.70231,-1.222842 -1.5325,-2.665727 -1.84484,-3.206412 l -0.5679,-0.983063 7.19418,0.01639 7.19418,0.01639 0.23479,0.386669 c 0.12912,0.212669 0.33092,0.556011 0.44844,0.762984 l 0.21368,0.376313 -5.98649,-0.04735 c -5.5137,-0.04361 -6.00284,-0.03889 -6.19379,0.05986 -0.21526,0.111313 -0.3093,0.319107 -0.26035,0.575199 0.0325,0.170001 2.12389,3.840877 2.19049,3.84482 0.0378,0.0022 0.80253,-0.421773 0.88394,-0.49006 0.0146,-0.01226 -0.0135,-0.10217 -0.0624,-0.199793 -0.0489,-0.09762 -0.0996,-0.199245 -0.1125,-0.225829 -0.013,-0.02658 0.50146,-0.04833 1.14313,-0.04833 h 1.16668 l -0.12928,0.253407 c -0.0711,0.139374 -0.15827,0.271336 -0.19373,0.293248 -0.0355,0.02191 -0.19597,-0.03722 -0.35668,-0.131414 -0.20167,-0.118173 -0.35674,-0.163301 -0.50035,-0.145595 -0.26088,0.03216 -10.83499,6.116588 -11.08321,6.377363 -0.15597,0.163856 -0.17723,0.236292 -0.17723,0.604058 v 0.417875 h -0.36134 c -0.28889,0 -0.35416,-0.01871 -0.32554,-0.09329 0.0197,-0.05131 0.28259,-0.519751 0.58423,-1.040987 l 0.54844,-0.947702 0.11544,0.204075 c 0.0635,0.112242 0.14445,0.196433 0.17989,0.187092 0.12741,-0.03357 0.86851,-0.469037 0.86925,-0.510769 0,-0.02347 -0.11526,-0.243873 -0.25702,-0.489785 -0.14178,-0.245912 -0.25778,-0.463636 -0.25778,-0.483832 0,-0.0202 0.17074,-0.330537 0.37941,-0.689649 l 0.37941,-0.652931 0.46625,0.808877 c 0.25644,0.444882 0.48168,0.808877 0.50051,0.808877 0.0297,0 0.84738,-0.440024 0.90607,-0.487593 0.0439,-0.03562 -1.41639,-2.513052 -1.54548,-2.621873 -0.14214,-0.119837 -0.47866,-0.148615 -0.6285,-0.05375 -0.0496,0.03138 -0.86668,1.401197 -1.81581,3.044035 l -1.72568,2.986976 -0.78316,0.01815 c -0.43074,0.01 -0.7712,-0.0045 -0.75658,-0.03222 z"
       id="path208-7" />
    <path
       style="fill:#e1642e;fill-opacity:1;stroke:none;stroke-width:0;stroke-linecap:round;stroke-linejoin:round;stroke-dasharray:none;stroke-opacity:1"
       d="m 372.39519,65.378806 -1.94586,-0.03365 3.5812,-6.20282 3.58119,-6.20282 h 0.8619 c 0.47405,0 0.8619,0.01402 0.8619,0.03116 0,0.01714 -1.34012,2.344402 -2.97805,5.171701 -1.63792,2.8273 -2.98879,5.227878 -3.00194,5.334616 -0.0159,0.128855 0.0228,0.253381 0.11492,0.37056 l 0.13883,0.176485 h 3.50164 3.50165 l 0.39259,0.671671 c 0.21592,0.369422 0.39258,0.688422 0.39258,0.708896 0,0.04232 -6.06868,0.02492 -9.00255,-0.0258 z"
       id="path209-8" />
    <path
       style="fill:#e1642e;fill-opacity:1;stroke:none;stroke-width:0;stroke-linecap:round;stroke-linejoin:round;stroke-dasharray:none;stroke-opacity:1"
       d="m 389.09873,65.313215 c 0.63051,-1.020156 6.02578,-10.433289 6.02578,-10.51315 0,-0.197602 -0.13692,-0.425723 -0.30014,-0.500095 -0.10861,-0.04949 -1.21415,-0.07217 -3.58569,-0.07354 l -3.42865,-0.002 -0.37224,-0.651521 c -0.20474,-0.358337 -0.36166,-0.662106 -0.34873,-0.675044 0.013,-0.01294 2.47883,-0.01611 5.47976,-0.007 l 5.45621,0.01648 -3.59304,6.232851 -3.59307,6.232852 -0.88992,0.0021 c -0.57481,0.0013 -0.87588,-0.02053 -0.85027,-0.06198 z"
       id="path210-4" />
    <path
       style="fill:#dc6960;fill-opacity:1;stroke:none;stroke-width:0;stroke-linecap:round;stroke-linejoin:round;stroke-dasharray:none;stroke-opacity:1"
       d="m 396.38118,73.810568 c -1.48865,-2.59004 -2.71635,-4.735065 -2.72815,-4.76672 -0.0124,-0.03326 1.24577,-0.05755 2.98056,-0.05755 h 3.00207 V 68.470739 67.95518 h -3.3124 -3.3124 l -0.45365,-0.773338 -0.45366,-0.77334 h 3.76606 3.76605 v -0.515043 -0.515043 l -3.7709,-0.01662 -3.77089,-0.01662 3.58786,-6.218931 c 1.97331,-3.420413 3.59372,-6.227026 3.6009,-6.236919 0.007,-0.0099 0.40502,-0.0099 0.88405,0 l 0.87095,0.01799 -3.02508,5.220036 c -3.23112,5.575554 -3.13899,5.390468 -2.84507,5.715254 0.0983,0.108657 0.26157,0.11701 2.28703,0.11701 h 2.18115 v -0.51556 c 0,-0.506071 -0.003,-0.515559 -0.16007,-0.515559 h -0.16008 l 0.10756,-0.225559 c 0.11604,-0.243306 0.1547,-0.261072 0.3457,-0.158845 0.12187,0.06521 0.12467,0.199424 0.12467,5.958887 v 5.89217 l -0.13441,0.07193 c -0.0739,0.03956 -0.14139,0.06233 -0.14994,0.0506 -0.008,-0.01172 -0.0809,-0.130085 -0.16084,-0.263001 l -0.14533,-0.241668 h 0.16637 c 0.16499,0 0.16637,-0.0043 0.16637,-0.515559 v -0.515559 l -0.46723,-0.0013 -0.46723,-0.0013 -0.35443,-0.622786 c -0.19495,-0.342535 -0.36412,-0.646428 -0.37595,-0.675315 -0.0119,-0.02889 0.35796,-0.05253 0.82169,-0.05253 h 0.84315 v -0.551209 -0.551206 l -1.45582,0.01953 c -1.44129,0.01934 -1.45703,0.02106 -1.5789,0.171678 -0.25323,0.313017 -0.2122,0.404042 1.58602,3.51805 0.94004,1.627823 1.70127,2.977857 1.69169,3.000071 -0.0706,0.163449 -0.73303,1.285793 -0.75856,1.285124 -0.0177,-5.3e-4 -1.25023,-2.119969 -2.73891,-4.710012 z"
       id="path211-1" />
    <path
       style="fill:#dc6960;fill-opacity:1;stroke:none;stroke-width:0;stroke-linecap:round;stroke-linejoin:round;stroke-dasharray:none;stroke-opacity:1"
       d="m 405.37124,62.267977 c -1.61271,-2.808736 -3.00974,-5.18666 -3.10449,-5.284277 -0.21722,-0.2238 -0.51601,-0.237338 -0.71694,-0.03249 -0.0782,0.07975 -0.89617,1.456438 -1.81766,3.059306 l -1.67539,2.914306 -0.78674,0.0019 -0.78674,0.0019 0.68056,-1.17612 c 4.6106,-7.968006 4.81126,-8.305415 4.88866,-8.221155 0.0781,0.08504 7.12099,12.273936 7.12099,12.324091 0,0.03189 -0.83973,1.519967 -0.85757,1.519676 -0.007,-1.11e-4 -1.33194,-2.298258 -2.94468,-5.106994 z"
       id="path212-7" />
    <path
       style="fill:#dc6960;fill-opacity:1;stroke:none;stroke-width:0;stroke-linecap:round;stroke-linejoin:round;stroke-dasharray:none;stroke-opacity:1"
       d="m 399.97776,84.082511 c 0.0151,-0.02659 1.36639,-2.361409 3.00279,-5.188501 1.63639,-2.827091 2.99188,-5.183422 3.01217,-5.236292 0.0568,-0.148097 -0.028,-0.400534 -0.18327,-0.545166 -0.13534,-0.126079 -0.21916,-0.130672 -2.38369,-0.130672 h -2.24343 v 0.515559 0.515559 h 0.25779 c 0.14176,0 0.25778,0.01701 0.25778,0.03783 0,0.06041 -1.12432,2.019456 -1.16049,2.022054 -0.018,0.0013 -0.11115,-0.127558 -0.20706,-0.286334 l -0.17436,-0.288682 0.27815,-0.163007 c 0.54174,-0.317487 0.49303,0.387556 0.47461,-6.869544 l -0.0164,-6.471291 -0.30459,-0.203572 c -0.16753,-0.111964 -0.34152,-0.216639 -0.38666,-0.232611 -0.0604,-0.02137 -0.0395,-0.109434 0.079,-0.333363 0.0886,-0.167378 0.1765,-0.31424 0.19534,-0.326361 0.0188,-0.01212 0.30023,0.439752 0.62537,1.004161 l 0.59116,1.026197 h -0.25482 -0.25482 v 0.513048 0.513051 l 0.55983,0.01863 0.55983,0.01863 0.40455,0.692782 0.40455,0.692782 h -0.96438 -0.96438 v 0.515559 0.51556 h 1.54667 c 1.46077,0 1.55385,-0.0072 1.67558,-0.12889 0.29189,-0.291893 0.24527,-0.396811 -1.58001,-3.556028 l -1.70889,-2.957772 0.37166,-0.641129 c 0.20442,-0.352621 0.39354,-0.634237 0.42027,-0.625814 0.0267,0.0084 1.26719,2.132289 2.75658,4.719702 l 2.70796,4.704387 -3.09491,0.01672 -3.09491,0.01672 v 0.51494 0.51494 h 3.40214 3.40212 l 0.43236,0.73473 c 0.23778,0.404101 0.43233,0.752102 0.43233,0.773337 0,0.02125 -1.72551,0.03861 -3.83448,0.03861 h -3.83447 v 0.547277 0.54728 l 3.86228,0.01662 3.86228,0.01662 -3.57182,6.186707 c -2.72812,4.725347 -3.60616,6.196608 -3.71726,6.22862 -0.2055,0.0592 -1.67333,0.06495 -1.64005,0.0064 z"
       id="path213-1" />
    <path
       style="fill:#dc6960;fill-opacity:1;stroke:none;stroke-width:0;stroke-linecap:round;stroke-linejoin:round;stroke-dasharray:none;stroke-opacity:1"
       d="m 395.42124,77.336348 -3.58881,-6.216248 0.43699,-0.77479 c 0.40614,-0.720013 0.44244,-0.764688 0.51364,-0.631899 0.0421,0.07859 1.39604,2.433857 3.00868,5.233924 3.19987,5.556027 3.0662,5.359955 3.52578,5.172001 0.16934,-0.06925 0.44342,-0.507053 1.92646,-3.07743 l 1.729,-2.996687 0.78359,-0.01812 0.78359,-0.01812 -0.0771,0.147011 c -0.12277,0.234045 -5.28992,9.156999 -5.37564,9.282951 -0.0666,0.09787 -0.57587,-0.749848 -3.66618,-6.102591 z"
       id="path214-8" />
  </g>
</svg>
