<?xml version="1.0" encoding="UTF-8" standalone="no"?>
<!-- Created with Inkscape (http://www.inkscape.org/) -->

<svg
   width="79.375mm"
   height="57.240227mm"
   viewBox="0 0 79.375 57.240227"
   version="1.1"
   id="svg1"
   xmlns="http://www.w3.org/2000/svg"
   xmlns:svg="http://www.w3.org/2000/svg"
   xmlns:ns2="http://www.iki.fi/pav/software/textext/">
  <defs
     id="defs1">
    <marker
       style="overflow:visible"
       id="ArrowWide"
       refX="0"
       refY="0"
       orient="auto-start-reverse"
       markerWidth="1"
       markerHeight="1"
       viewBox="0 0 1 1"
       preserveAspectRatio="xMidYMid">
      <path
         style="fill:none;stroke:context-stroke;stroke-width:1;stroke-linecap:butt"
         d="M 3,-3 0,0 3,3"
         transform="rotate(180,0.125,0)"
         id="path8" />
    </marker>
  </defs>
  <g
     id="layer1"
     transform="translate(-42.333329,-41.730342)">
    <g
       transform="matrix(0.352778,0,0,0.352778,103.6,147.027)"
       ns2:version="1.10.0"
       ns2:texconverter="pdflatex"
       ns2:pdfconverter="inkscape"
       ns2:text="$v^2$"
       ns2:preamble="/Users/allen/Library/Application Support/org.inkscape.Inkscape/config/inkscape/extensions/textext/default_packages.tex"
       ns2:scale="1.0"
       ns2:alignment="middle center"
       ns2:stroke-to-path="0"
       id="g4214"
       ns2:jacobian_sqrt="0.352778">
      <defs
         id="id-b67f8235-f047-4bd6-96d9-139699175796" />
      <path
         style="fill:#000000;fill-opacity:0;stroke:#000000;stroke-width:2.04945;stroke-dasharray:none"
         d="M -173.66919,-266.76928 H 51.330666"
         id="path1" />
      <rect
         style="fill:#000000;fill-opacity:1;stroke:#000000;stroke-width:2.04945;stroke-dasharray:none"
         id="rect1"
         width="52.499966"
         height="14.99999"
         x="-91.169235"
         y="-274.26929" />
      <g
         transform="translate(-64.1867,-100.632)"
         ns2:version="1.10.0"
         ns2:texconverter="pdflatex"
         ns2:pdfconverter="inkscape"
         ns2:text="$x$\n$r$\n$\\theta$\n$m$\n$M$"
         ns2:preamble="/Users/allen/Library/Application Support/org.inkscape.Inkscape/config/inkscape/extensions/textext/default_packages.tex"
         ns2:scale="1.0"
         ns2:alignment="middle center"
         ns2:stroke-to-path="0"
         id="g1215"
         ns2:jacobian_sqrt="1.0">
        <defs
           id="id-4b1aab9c-4ed0-4e8a-97b7-450cd60ac5e9" />
        <g
           transform="matrix(5,0,0,5,-58.706344,-94.57358)"
           ns2:version="1.10.0"
           ns2:texconverter="pdflatex"
           ns2:pdfconverter="inkscape"
           ns2:text="$xr\\theta m M$"
           ns2:preamble="/Users/allen/Library/Application Support/org.inkscape.Inkscape/config/inkscape/extensions/textext/default_packages.tex"
           ns2:scale="5.0"
           ns2:alignment="middle center"
           ns2:stroke-to-path="0"
           id="g3764"
           ns2:jacobian_sqrt="5.0">
          <defs
             id="id-3852be45-b933-4a87-baad-67389b6f0a4c" />
          <g
             fill="#000000"
             fill-opacity="1"
             id="id-a69a140c-cfc7-4af0-aca1-ce17a77d7a74"
             transform="matrix(0.48358862,0,0,0.48358862,-72.059121,-58.083337)">
            <g
               transform="translate(152.9413,78.194539)"
               id="g3485">
              <path
                 d="m -10.419069,0.59399606 c 0.0625,-0.25 0.296875,-1.171875 0.9843746,-1.171875 0.046875,0 0.296875,0 0.5,0.125 -0.28125,0.0625 -0.46875,0.296875 -0.46875,0.546875 0,0.15625 0.109375,0.34375 0.375,0.34375 0.21875,0 0.53125,-0.171875 0.53125,-0.578125 0,-0.515625 -0.578125,-0.65625 -0.921875,-0.65625 -0.578125,0 -0.9218746,0.53125 -1.0468746,0.75 -0.25,-0.65625 -0.78125,-0.75 -1.078125,-0.75 -1.03125,0 -1.609375,1.28125 -1.609375,1.53125 0,0.109375 0.109375,0.109375 0.125,0.109375 0.07813,0 0.109375,-0.03125 0.125,-0.109375 0.34375,-1.0625 1,-1.3125 1.34375,-1.3125 0.1875,0 0.53125,0.09375 0.53125,0.671875 0,0.3125 -0.171875,0.96874994 -0.53125,2.37499994 -0.15625,0.609375 -0.515625,1.03125 -0.953125,1.03125 -0.0625,0 -0.28125,0 -0.5,-0.125 0.25,-0.0625 0.46875,-0.265625 0.46875,-0.546875 0,-0.265625 -0.21875,-0.34375 -0.359375,-0.34375 -0.3125,0 -0.546875,0.25 -0.546875,0.578125 0,0.453125 0.484375,0.65625 0.921875,0.65625 0.671875,0 1.03125,-0.703125 1.046875,-0.75 0.125,0.359375 0.484375,0.75 1.078125,0.75 1.0312496,0 1.5937496,-1.28125 1.5937496,-1.53125 0,-0.109375 -0.078125,-0.109375 -0.109375,-0.109375 -0.09375,0 -0.109375,0.046875 -0.140625,0.109375 -0.328125,1.078125 -0.9999996,1.3125 -1.3124996,1.3125 -0.390625,0 -0.546875,-0.3125 -0.546875,-0.65625 0,-0.21875 0.04687,-0.4375 0.15625,-0.875 z m 0,0"
                 id="id-3c4f2048-875d-4eab-8fe2-0dd80a18927c" />
            </g>
            <g
               transform="translate(197.10099,109.66172)"
               id="g4242">
              <path
                 d="m 0.875,-0.59375 c -0.03125,0.15625 -0.09375,0.390625 -0.09375,0.4375 0,0.171875 0.140625,0.265625 0.296875,0.265625 0.125,0 0.296875,-0.078125 0.375,-0.28125 C 1.46875,-0.203125 1.796875,-1.5625 1.84375,-1.75 c 0.078125,-0.328125 0.265625,-1.015625 0.3125,-1.296875 0.046875,-0.125 0.328125,-0.59375 0.5625,-0.8125 0.078125,-0.0625 0.375,-0.328125 0.796875,-0.328125 0.265625,0 0.40625,0.125 0.421875,0.125 -0.296875,0.046875 -0.515625,0.28125 -0.515625,0.546875 0,0.15625 0.109375,0.34375 0.375,0.34375 0.265625,0 0.546875,-0.234375 0.546875,-0.59375 0,-0.34375 -0.3125,-0.640625 -0.828125,-0.640625 C 2.875,-4.40625 2.4375,-3.921875 2.25,-3.640625 2.15625,-4.09375 1.796875,-4.40625 1.328125,-4.40625 0.875,-4.40625 0.6875,-4.015625 0.59375,-3.84375 0.421875,-3.5 0.296875,-2.90625 0.296875,-2.875 c 0,0.109375 0.09375,0.109375 0.109375,0.109375 0.109375,0 0.109375,-0.015625 0.171875,-0.234375 0.171875,-0.703125 0.375,-1.1875 0.734375,-1.1875 0.15625,0 0.296875,0.078125 0.296875,0.453125 0,0.21875 -0.03125,0.328125 -0.15625,0.84375 z m 0,0"
                 id="id-41f61fe4-1e48-4f2a-a760-d3ea7ed8fc1b" />
            </g>
            <path
               style="fill:#000000;fill-opacity:1;stroke:#000000;stroke-width:0.8476;stroke-dasharray:5.0856, 5.0856;stroke-dashoffset:0"
               d="M 172.98562,90.512046 V 144.50273"
               id="path2" />
            <path
               style="fill:#000000;fill-opacity:1;stroke:#000000;stroke-width:0.495898;stroke-dasharray:0.495898, 1.4877;stroke-dashoffset:0"
               d="m 172.98562,90.512046 33.0097,43.495374"
               id="path3" />
            <path
               style="fill:#000000;fill-opacity:1;stroke:#000000;stroke-width:0.261431;stroke-dasharray:none;stroke-dashoffset:0"
               d="m 136.38429,80.896447 v 6.203619"
               id="path6" />
            <path
               style="fill:none;fill-opacity:1;stroke:#000000;stroke-width:0.261431;stroke-dasharray:none;stroke-dashoffset:0;marker-end:url(#ArrowWide)"
               d="m 136.38429,83.998258 h 24.81446"
               id="path7" />
          </g>
          <g
             fill="#000000"
             fill-opacity="1"
             id="id-72c95197-1f0d-47f7-9da4-3ddcfdb57f44"
             transform="matrix(0.34632572,0,0,0.34632572,-42.411573,-53.236851)">
            <g
               transform="translate(159.18,134.765)"
               id="g5302">
              <path
                 d="m 3.7396227,-7.7580578 c 0,-0.65625 -0.171875,-2.046875 -1.1875,-2.046875 -1.390625,0 -2.92187499,2.8125 -2.92187499,5.09375 0,0.9375 0.28125,2.046875 1.1875,2.046875 1.40624999,0 2.92187499,-2.859375 2.92187499,-5.09375 z m -3.06249999,1.359375 c 0.171875,-0.625 0.37499999,-1.421875 0.78124999,-2.140625 0.265625,-0.484375 0.625,-1.046875 1.078125,-1.046875 0.484375,0 0.546875,0.640625 0.546875,1.203125 0,0.5 -0.078125,1 -0.3125,1.984375 z m 1.99999999,0.328125 c -0.109375,0.453125 -0.3125,1.296875 -0.703125,2.015625 -0.34375,0.6875 -0.71875,1.171875 -1.15624999,1.171875 -0.328125,0 -0.53125,-0.296875 -0.53125,-1.21875 0,-0.421875 0.0625,-1 0.3125,-1.96875 z m 0,0"
                 id="id-00835e81-5c52-421f-87db-68baebb14e02" />
            </g>
          </g>
          <g
             fill="#000000"
             fill-opacity="1"
             id="id-3225a559-0622-4a42-849d-ab5ee317109a"
             transform="translate(-149.009,-127.734)">
            <g
               transform="matrix(0.48358862,0,0,0.48358862,179.23869,133.55401)"
               id="g7430">
              <path
                 d="m 0.875,-0.59375 c -0.03125,0.15625 -0.09375,0.390625 -0.09375,0.4375 0,0.171875 0.140625,0.265625 0.296875,0.265625 0.125,0 0.296875,-0.078125 0.375,-0.28125 0,-0.015625 0.125,-0.484375 0.1875,-0.734375 l 0.21875,-0.890625 C 1.90625,-2.03125 1.96875,-2.25 2.03125,-2.46875 c 0.03125,-0.171875 0.109375,-0.46875 0.125,-0.5 0.140625,-0.3125 0.671875,-1.21875 1.625,-1.21875 0.453125,0 0.53125,0.375 0.53125,0.703125 0,0.25 -0.0625,0.53125 -0.140625,0.828125 L 3.890625,-1.5 3.6875,-0.75 c -0.03125,0.203125 -0.125,0.546875 -0.125,0.59375 0,0.171875 0.140625,0.265625 0.28125,0.265625 0.3125,0 0.375,-0.25 0.453125,-0.5625 0.140625,-0.5625 0.515625,-2.015625 0.59375,-2.40625 0.03125,-0.125 0.5625,-1.328125 1.65625,-1.328125 0.421875,0 0.53125,0.34375 0.53125,0.703125 0,0.5625 -0.421875,1.703125 -0.625,2.234375 -0.078125,0.234375 -0.125,0.34375 -0.125,0.546875 0,0.46875 0.34375,0.8125 0.8125,0.8125 0.9375,0 1.3125,-1.453125 1.3125,-1.53125 0,-0.109375 -0.09375,-0.109375 -0.125,-0.109375 -0.09375,0 -0.09375,0.03125 -0.140625,0.1875 -0.15625,0.53125 -0.46875,1.234375 -1.015625,1.234375 -0.171875,0 -0.25,-0.09375 -0.25,-0.328125 0,-0.25 0.09375,-0.484375 0.1875,-0.703125 0.1875,-0.53125 0.609375,-1.625 0.609375,-2.203125 0,-0.640625 -0.40625,-1.0625 -1.15625,-1.0625 -0.734375,0 -1.25,0.4375 -1.625,0.96875 0,-0.125 -0.03125,-0.46875 -0.3125,-0.703125 -0.25,-0.21875 -0.5625,-0.265625 -0.8125,-0.265625 -0.90625,0 -1.390625,0.640625 -1.5625,0.875 -0.046875,-0.578125 -0.46875,-0.875 -0.921875,-0.875 -0.453125,0 -0.640625,0.390625 -0.734375,0.5625 -0.171875,0.359375 -0.296875,0.9375 -0.296875,0.96875 0,0.109375 0.09375,0.109375 0.109375,0.109375 0.109375,0 0.109375,-0.015625 0.171875,-0.234375 0.171875,-0.703125 0.375,-1.1875 0.734375,-1.1875 0.15625,0 0.296875,0.078125 0.296875,0.453125 0,0.21875 -0.03125,0.328125 -0.15625,0.84375 z m 0,0"
                 id="id-2d9d09f1-9e53-4ddf-b2e4-f83c63fa4359" />
            </g>
            <g
               transform="matrix(0.48358862,0,0,0.48358862,162.05305,110.67805)"
               id="g5066">
              <path
                 d="M 9.234375,-6.046875 C 9.328125,-6.40625 9.34375,-6.5 10.09375,-6.5 c 0.21875,0 0.3125,0 0.3125,-0.203125 0,-0.109375 -0.09375,-0.109375 -0.265625,-0.109375 h -1.3125 c -0.265625,0 -0.28125,0 -0.390625,0.1875 L 4.796875,-0.9375 4.015625,-6.578125 C 3.984375,-6.8125 3.96875,-6.8125 3.703125,-6.8125 H 2.34375 c -0.1875,0 -0.296875,0 -0.296875,0.1875 0,0.125 0.09375,0.125 0.28125,0.125 0.140625,0 0.3125,0.015625 0.4375,0.015625 0.15625,0.03125 0.21875,0.046875 0.21875,0.171875 0,0.03125 -0.015625,0.0625 -0.046875,0.1875 l -1.265625,5.0625 c -0.09375,0.40625 -0.265625,0.71875 -1.078125,0.75 -0.046875,0 -0.171875,0.015625 -0.171875,0.1875 0,0.09375 0.0625,0.125 0.140625,0.125 0.3125,0 0.65625,-0.03125 1,-0.03125 C 1.890625,-0.03125 2.25,0 2.578125,0 c 0.046875,0 0.1875,0 0.1875,-0.203125 0,-0.109375 -0.109375,-0.109375 -0.1875,-0.109375 -0.5625,0 -0.671875,-0.203125 -0.671875,-0.4375 0,-0.0625 0,-0.125 0.03125,-0.234375 L 3.296875,-6.40625 H 3.3125 l 0.859375,6.171875 C 4.1875,-0.109375 4.203125,0 4.3125,0 4.421875,0 4.484375,-0.109375 4.53125,-0.171875 l 4.03125,-6.3125 h 0.015625 l -1.4375,5.703125 c -0.09375,0.390625 -0.109375,0.46875 -0.90625,0.46875 -0.15625,0 -0.265625,0 -0.265625,0.1875 C 5.96875,0 6.078125,0 6.109375,0 6.390625,0 7.0625,-0.03125 7.34375,-0.03125 7.75,-0.03125 8.1875,0 8.59375,0 8.65625,0 8.78125,0 8.78125,-0.203125 8.78125,-0.3125 8.6875,-0.3125 8.5,-0.3125 c -0.359375,0 -0.640625,0 -0.640625,-0.171875 0,-0.046875 0,-0.0625 0.046875,-0.25 z m 0,0"
                 id="id-72a4acc4-aa69-4739-8f33-05c66f072a52" />
            </g>
            <path
               style="fill:#000000;fill-opacity:1;stroke:#000000;stroke-width:0.239811;stroke-dasharray:none;stroke-dashoffset:0"
               id="path5"
               d="m 176.55377,136.7051 a 2.2499986,2.2499988 0 0 1 -2.2369,-2.25409 2.2499986,2.2499988 0 0 1 2.24517,-2.24586 2.2499986,2.2499988 0 0 1 2.25478,2.2362 2.2499986,2.2499988 0 0 1 -2.22721,2.26367" />
          </g>
          <path
             style="fill:none;fill-opacity:1;stroke:#000000;stroke-width:0.282884;stroke-dasharray:none;stroke-dashoffset:0"
             d="m 13.01255,-13.230474 1.098825,1.514656 c 0,0 2.958749,-0.701578 4.469634,1.381074 1.510883,2.082651 -0.898454,3.5415566 -0.898454,3.5415566 0,0 -2.650648,1.9229437 -3.474766,0.786952 -0.824119,-1.1359917 1.963882,-2.8696034 1.963882,-2.8696034 0,0 2.271985,-1.6482372 3.782868,0.4344139"
             id="path4" />
          <path
             style="fill:none;fill-opacity:1;stroke:#000000;stroke-width:0.282884;stroke-dasharray:none;stroke-dashoffset:0"
             d="m 19.927068,-8.4792917 c 1.510884,2.0826514 -0.898453,3.541557 -0.898453,3.541557 0,0 -2.650647,1.9229437 -3.474766,0.7869513 -0.824119,-1.1359917 1.963882,-2.8696027 1.963882,-2.8696027 0,0 2.271984,-1.6482376 3.782868,0.4344139"
             id="path4-3" />
          <path
             style="fill:none;fill-opacity:1;stroke:#000000;stroke-width:0.282884;stroke-dasharray:none;stroke-dashoffset:0"
             d="m 21.245658,-6.6617052 c 1.510884,2.0826522 -0.898453,3.5415578 -0.898453,3.5415578 0,0 -2.650647,1.922943 -3.474766,0.7869513 -0.824118,-1.1359917 1.963882,-2.8696027 1.963882,-2.8696027 0,0 2.271984,-1.6482376 3.782868,0.4344138"
             id="path4-3-4" />
          <path
             style="fill:none;fill-opacity:1;stroke:#000000;stroke-width:0.282884;stroke-dasharray:none;stroke-dashoffset:0"
             d="m 22.572531,-4.8326995 c 1.510885,2.0826521 -0.898452,3.5415577 -0.898452,3.5415577 0,0 -2.650648,1.92294297 -3.474766,0.78695059 -0.824119,-1.13599099 1.963881,-2.86960269 1.963881,-2.86960269 0,0 2.271984,-1.6482376 3.782869,0.4344145"
             id="path4-3-9" />
          <path
             style="fill:none;fill-opacity:1;stroke:#000000;stroke-width:0.282884;stroke-dasharray:none;stroke-dashoffset:0"
             d="m 23.891121,-3.0151123 c 1.510884,2.08265147 -0.898452,3.54155779 -0.898452,3.54155779 0,0 -2.650648,1.92294291 -3.474766,0.78695121 -0.824119,-1.13599235 1.963881,-2.8696033 1.963881,-2.8696033 0,0 2.271984,-1.6482376 3.782869,0.4344145"
             id="path4-3-4-4" />
          <path
             style="fill:none;fill-opacity:1;stroke:#000000;stroke-width:0.282884;stroke-dasharray:none;stroke-dashoffset:0"
             d="M 27.462095,6.6872482 26.363271,5.1725933 c 0,0 1.585218,-2.5948983 0.07433,-4.6775498 -1.510884,-2.0826514 -3.645515,-0.24508259 -3.645515,-0.24508259 0,0 -2.650647,1.92294359 -1.826529,3.05893569 0.824119,1.1359917 3.337413,-0.9762836 3.337413,-0.9762836 0,0 2.271984,-1.64823755 0.7611,-3.730889"
             id="path4-1" />
        </g>
      </g>
    </g>
  </g>
</svg>
